{"title":"Red Garters (1954)  DVDRip XviD-pong","uid":15459078,"size":729657344,"categoryP":"video","categoryS":"movies","magnet":"?xt=urn:btih:035192b312699c8f81081e71b4f3530e5cf4ab89&amp;dn=Red+Garters+%281954%29++DVDRip+XviD-pong&amp;tr=udp%3A%2F%2Ftracker.leechers-paradise.org%3A6969&amp;tr=udp%3A%2F%2Fzer0day.ch%3A1337&amp;tr=udp%3A%2F%2Fopen.demonii.com%3A1337&amp;tr=udp%3A%2F%2Ftracker.coppersurfer.tk%3A6969&amp;tr=udp%3A%2F%2Fexodus.desync.com%3A6969","seeders":0,"leechers":1,"uploader":"Pongydog","files":1,"time":1470023907,"description":"http://www.imdb.com/title/tt0047400/\r\n\r\n\r\n\r\nReb Randall rides into town seeking the murderer of his brother, Rob Randall. Jason Carberry is the Mayor of the town. \r\n\r\nDirector: George Marshall  \r\n\r\nWriter: Michael Fessier  \r\n\r\nStars: Rosemary Clooney,  Jack Carson,  Guy Mitchell  | \r\n\r\nGeneral\r\nComplete name                            : C:RED_GARTERSVIDEO_TSRed Garters (1954)  DVDRip XviD-pong.avi\r\nFormat                                   : AVI\r\nFormat/Info                              : Audio Video Interleave\r\nFile size                                : 696 MiB\r\nDuration                                 : 1h 31mn\r\nOverall bit rate                         : 1 069 Kbps\r\nWriting application                      : VirtualDubMod 1.5.4.1 (build 2178/release)\r\nWriting library                          : VirtualDubMod build 2178/release\r\n\r\nVideo\r\nID                                       : 0\r\nFormat                                   : MPEG-4 Visual\r\nFormat profile                           : Advanced   \r\nFormat settings, BVOP                    : 1\r\nFormat settings, QPel                    : No\r\nFormat settings, GMC                     : No warppoints\r\nFormat settings, Matrix                  : Custom\r\nCodec ID                                 : XVID\r\nCodec ID/Hint                            : XviD\r\nDuration                                 : 1h 31mn\r\nBit rate                                 : 934 Kbps\r\nWidth                                    : 640 pixels\r\nHeight                                   : 480 pixels\r\nDisplay aspect ratio                     : 4:3\r\nFrame rate                               : 23.976 (23976/1000) fps\r\nColor space                              : YUV\r\nChroma subsampling                       : 4:2:0\r\nBit depth                                : 8 bits\r\nScan type                                : Progressive\r\nCompression mode                         : Lossy\r\nBits/(Pixel*Frame)                       : 0.127\r\nStream size                              : 608 MiB (87%)\r\nWriting library                          : XviD 1.2.1 (UTC 2008-12-04)\r\n\r\nAudio\r\nID                                       : 1\r\nFormat                                   : MPEG Audio\r\nFormat version                           : Version 1\r\nFormat profile                           : Layer 3\r\nMode                                     : Joint stereo\r\nMode extension                           : MS Stereo\r\nCodec ID                                 : 55\r\nCodec ID/Hint                            : MP3\r\nDuration                                 : 1h 31mn\r\nBit rate mode                            : Constant\r\nBit rate                                 : 128 Kbps\r\nChannel(s)                               : 2 channels\r\nSampling rate                            : 48.0 KHz\r\nCompression mode                         : Lossy\r\nStream size                              : 83.3 MiB (12%)\r\nAlignment                                : Aligned on interleaves\r\nInterleave, duration                     : 83 ms (2.00 video frames)\r\nInterleave, preload duration             : 504 ms\r\nWriting library                          : LAME3.98r\r\nEncoding settings                        : -m j -V 4 -q 2 -lowpass 17 -b 128\r\nLanguage                                 : English","torrent":{"xt":"urn:btih:035192b312699c8f81081e71b4f3530e5cf4ab89","amp;dn":"Red+Garters+%281954%29++DVDRip+XviD-pong","amp;tr":["udp%3A%2F%2Ftracker.leechers-paradise.org%3A6969","udp%3A%2F%2Fzer0day.ch%3A1337","udp%3A%2F%2Fopen.demonii.com%3A1337","udp%3A%2F%2Ftracker.coppersurfer.tk%3A6969","udp%3A%2F%2Fexodus.desync.com%3A6969"],"infoHash":"035192b312699c8f81081e71b4f3530e5cf4ab89","infoHashBuffer":{"type":"Buffer","data":[3,81,146,179,18,105,156,143,129,8,30,113,180,243,83,14,92,244,171,137]},"announce":[],"urlList":[]}}